# xmcd CD database file
#
# Track frame offsets:
#	150
#	20935
#	38192
#	61210
#	79495
#	96467
#	114190
#	133567
#	147330
#	162767
#	182137
#	200340
#	214725
#	228002
#	244020
#	254277
#	272540
#
# Disc length: 3852 seconds
#
# Revision: 3
# Processed by: cddbd v1.5.2PL0 Copyright (c) Steve Scherf et al.
# Submitted via: CDex 1.51
#
DISCID=ee0f0a11
DTITLE=Various Artist - Hovigs Hangar 2002
DYEAR=2003
DGENRE=Blues
TTITLE0=Jimmy Thackery - Rude Mood
TTITLE1=Finis Tasby - Mercy's Blues (I Believe)
TTITLE2=William Clarke - Letter From Home
TTITLE3=Duke Robillard - Jumpin' Rockin' Rhythm
TTITLE4=Kid Ramos - Fiddle De Dee
TTITLE5=Chris Thomas King - Bourbon Street Blues
TTITLE6=Magic Slim and The Teardrops - What's Wrong
TTITLE7=Mitch Woods and His Rockets 88's - Long Lean And Lanky
TTITLE8=Long John Hunter - Ride With Me
TTITLE9=Snooky Pryor - Work With Me Annie
TTITLE10=Dave Specter and Lenny Lynn - Roll'em Pete
TTITLE11=John Mooney - Cypress Grove
TTITLE12=Seatsniffers - Assembly Line
TTITLE13=Smokey Wilson - Standing At The Crossroads
TTITLE14=Jimmy Rogers - Chicago Bound
TTITLE15=Eric Sardinas - I Can't Be Satisfied
TTITLE16=Junior Watson (LIVE) - Call Everybody Sweetheart
EXTD=YEAR: 2003
EXTT0=
EXTT1=
EXTT2=
EXTT3=
EXTT4=
EXTT5=
EXTT6=
EXTT7=
EXTT8=
EXTT9=
EXTT10=
EXTT11=
EXTT12=
EXTT13=
EXTT14=
EXTT15=
EXTT16=
PLAYORDER=
